<?xml version="1.0" encoding="utf-8"?>
<!-- Generator: Adobe Illustrator 22.0.0, SVG Export Plug-In . SVG Version: 6.00 Build 0)  -->
<svg version="1.1" id="Layer_1" xmlns="http://www.w3.org/2000/svg" xmlns:xlink="http://www.w3.org/1999/xlink" x="0px" y="0px"
	 viewBox="0 0 32 32" style="enable-background:new 0 0 32 32;" xml:space="preserve">
<g>
	<g>
		<path d="M14,15H7c-0.6,0-1-0.4-1-1V7c0-0.6,0.4-1,1-1h7c0.6,0,1,0.4,1,1v7C15,14.6,14.6,15,14,15z M8,13h5V8H8V13z"/>
	</g>
	<g>
		<path d="M25,15h-7c-0.6,0-1-0.4-1-1V7c0-0.6,0.4-1,1-1h7c0.6,0,1,0.4,1,1v7C26,14.6,25.6,15,25,15z M19,13h5V8h-5V13z"/>
	</g>
	<g>
		<path d="M14,26H7c-0.6,0-1-0.4-1-1v-7c0-0.6,0.4-1,1-1h7c0.6,0,1,0.4,1,1v7C15,25.6,14.6,26,14,26z M8,24h5v-5H8V24z"/>
	</g>
	<g>
		<path d="M25,26h-7c-0.6,0-1-0.4-1-1v-7c0-0.6,0.4-1,1-1h7c0.6,0,1,0.4,1,1v7C26,25.6,25.6,26,25,26z M19,24h5v-5h-5V24z"/>
	</g>
</g>
</svg>
